# xmcd
#
# Track frame offsets: 
#        150
#        10810
#        20049
#        29826
#        41426
#        52951
#        64209
#        75732
#        88688
#        99558
#        109274
#        120055
#        133158
#        147186
#        161358
#        174048
#        185366
#        199100
#        210306
#        219939
#
# Disc length: 3085 seconds
#
# Revision: 0
# Processed by: cddbd v1.5.2PL0 Copyright (c) Steve Scherf et al.
# Submitted via: ExactAudioCopy v1.1
#
DISCID=070c0b14
DTITLE=Ferlin Husky - CD2_The Essential Recordings
DYEAR=2016
DGENRE=Country
TTITLE0=Wings Of a Dove
TTITLE1=My Reason For Living
TTITLE2=Draggin' The River
TTITLE3=Black Sheep
TTITLE4=Detour
TTITLE5=Deep Water
TTITLE6=Blue Eyes Cryin' In The Rain
TTITLE7=Missing Persons
TTITLE8=I Feel That Old Heartache Again
TTITLE9=This Moment Of Love
TTITLE10=Willow Tree
TTITLE11=Walkin' And A Hummin'
TTITLE12=I'm So Lonesome I Could Cry
TTITLE13=Undesired
TTITLE14=Alone And Forsaken
TTITLE15=I Lost My Love Today
TTITLE16=The Waltz You Saved For Me
TTITLE17=Somebody Save Me
TTITLE18=Stand Up
TTITLE19=It Was You
EXTD=
EXTT0=
EXTT1=
EXTT2=
EXTT3=
EXTT4=
EXTT5=
EXTT6=
EXTT7=
EXTT8=
EXTT9=
EXTT10=
EXTT11=
EXTT12=
EXTT13=
EXTT14=
EXTT15=
EXTT16=
EXTT17=
EXTT18=
EXTT19=
PLAYORDER=
